<?xml version="1.0" encoding="UTF-8"?>
<svg width="100px" height="100px" viewBox="0 0 100 100" version="1.1" xmlns="http://www.w3.org/2000/svg" xmlns:xlink="http://www.w3.org/1999/xlink">
    <title>切片</title>
    <g id="页面-1" stroke="none" stroke-width="1" fill="none" fill-rule="evenodd">
        <g id="icon" transform="translate(-361.000000, -129.000000)" fill="#000000">
            <g id="icon/-10-65°C-Temperature" transform="translate(361.000000, 129.000000)">
                <g id="编组" transform="translate(8.000000, 2.500300)">
                    <path d="M15.0083873,9.17279561 C15.5951922,8.58802948 16.5449383,8.58968229 17.1297044,9.17648726 L66.1747044,58.3924873 C66.7594705,58.9792922 66.7578177,59.9290383 66.1710127,60.5138044 C65.5842078,61.0985705 64.6344617,61.0969177 64.0496956,60.5101127 L15.0046956,11.2941127 C14.4199295,10.7073078 14.4215823,9.75756174 15.0083873,9.17279561 Z" id="Stroke-1" fill-rule="nonzero"></path>
                    <path d="M21.0658383,5.16340676 C21.8902853,5.08229731 22.6243838,5.6848914 22.7054932,6.50933834 L23.6834932,16.4503383 C23.7772797,17.4036418 22.9656545,18.199395 22.014389,18.0868021 L12.129389,16.9168021 C11.3067045,16.8194282 10.718724,16.0735735 10.8160979,15.250889 C10.9134718,14.4282045 11.6593265,13.840224 12.482011,13.9375979 L20.5147,14.8882 L19.7199068,6.80306166 C19.6435684,6.0271116 20.1728637,5.33119337 20.9227447,5.18438411 L21.0658383,5.16340676 Z" id="Stroke-2" fill-rule="nonzero"></path>
                    <path d="M58.4970068,50.7754092 L68.3850068,51.9464092 C69.2076851,52.043836 69.7956176,52.7897286 69.6981908,53.6124068 C69.600764,54.4350851 68.8548714,55.0230176 68.0321932,54.9255908 L59.9956,53.973 L60.7923772,62.057975 C60.8688004,62.8339167 60.3395813,63.5298928 59.5897164,63.6767842 L59.446625,63.6977772 C58.622187,63.7789768 57.8880225,63.1764631 57.8068228,62.352025 L56.8278228,52.412025 C56.7381899,51.5019619 57.4737208,50.7354211 58.3682128,50.7656066 L58.4970068,50.7754092 Z" id="Stroke-3" fill-rule="nonzero"></path>
                    <path d="M40.8455,-1.5 C41.6739271,-1.5 42.3455,-0.828427125 42.3455,0 L42.3455,69.602 C42.3455,70.4304271 41.6739271,71.102 40.8455,71.102 C40.0170729,71.102 39.3455,70.4304271 39.3455,69.602 L39.3455,0 C39.3455,-0.828427125 40.0170729,-1.5 40.8455,-1.5 Z" id="Stroke-4" fill-rule="nonzero"></path>
                    <path d="M33.9034681,-0.116799253 C34.5548323,-0.628674386 35.4978241,-0.515596139 36.0096993,0.135768083 L41.0173,6.5086 L46.1500359,0.233144487 C46.6416326,-0.368119669 47.502925,-0.489045288 48.1371211,-0.0697449005 L48.2607555,0.0213359347 C48.9021039,0.545705735 48.9969339,1.49070708 48.4725641,2.13205551 L42.1565641,9.85705551 C41.5488833,10.6003003 40.4091017,10.5892838 39.8159007,9.83443192 L33.6509007,1.98943192 C33.1390256,1.3380677 33.2521039,0.395075881 33.9034681,-0.116799253 Z" id="Stroke-6" fill-rule="nonzero"></path>
                    <path d="M39.5848015,60.6559313 C40.1923948,59.9124188 41.3324044,59.9232968 41.9256993,60.6782681 L48.0906993,68.5232681 C48.6025744,69.1746323 48.4894961,70.1176241 47.8381319,70.6294993 C47.1867677,71.1413744 46.2437759,71.0282961 45.7319007,70.3769319 L40.7233,64.0031 L35.5957985,70.2782687 C35.1043504,70.8796542 34.2430879,71.0007926 33.6087883,70.5816488 L33.4851313,70.4905985 C32.8436534,69.9663872 32.7485901,69.0214093 33.2728015,68.3799313 L39.5848015,60.6559313 Z" id="Stroke-8" fill-rule="nonzero"></path>
                    <path d="M76.2074,33.3603 C77.0358271,33.3603 77.7074,34.0318729 77.7074,34.8603 C77.7074,35.6887271 77.0358271,36.3603 76.2074,36.3603 L6.8474,36.3603 C6.01897288,36.3603 5.3474,35.6887271 5.3474,34.8603 C5.3474,34.0318729 6.01897288,33.3603 6.8474,33.3603 L76.2074,33.3603 Z" id="Stroke-9" fill-rule="nonzero"></path>
                    <path d="M7.3571703,27.5497453 C7.88358312,26.9100727 8.82888214,26.8182575 9.46855474,27.3446703 L17.1665547,33.6796703 C17.9046961,34.2871171 17.8938977,35.4207993 17.1443195,36.0140755 L9.32731952,42.2010755 C8.67773572,42.7152082 7.73435714,42.6054033 7.22022449,41.9558195 C6.70609183,41.3062357 6.81589668,40.3628571 7.46548048,39.8487245 L13.8244,34.8149 L7.56224526,29.6611297 C6.9625522,29.1676177 6.84437444,28.305944 7.26569557,27.6730886 L7.3571703,27.5497453 Z" id="Stroke-10" fill-rule="nonzero"></path>
                    <path d="M74.0777462,27.4022933 C74.7274025,26.8882522 75.6707656,26.99819 76.1848067,27.6478462 C76.6988478,28.2975025 76.58891,29.2408656 75.9392538,29.7549067 L69.5785,34.7866 L75.8407286,39.9414311 C76.4403902,40.4349813 76.558513,41.2966625 76.1371515,41.9294911 L76.0456689,42.0528286 C75.5192153,42.6924676 74.5739105,42.7842225 73.9342714,42.2577689 L66.2372714,35.9227689 C65.4991322,35.315245 65.5100472,34.1814934 66.2597462,33.5882933 L74.0777462,27.4022933 Z" id="Stroke-11" fill-rule="nonzero"></path>
                    <path d="M64.1316848,9.17629809 C64.716445,8.58948716 65.666191,8.58782467 66.2530019,9.17258481 C66.8398128,9.75734496 66.8414753,10.707091 66.2567152,11.2939019 L17.2127152,60.5099019 C16.627955,61.0967128 15.678209,61.0983753 15.0913981,60.5136152 C14.5045872,59.928855 14.5029247,58.979109 15.0876848,58.3922981 L64.1316848,9.17629809 Z" id="Stroke-12" fill-rule="nonzero"></path>
                    <path d="M23.4238472,50.7020046 C24.3769311,50.6076008 25.1731624,51.4184274 25.0614638,52.3696395 L23.8964638,62.2906395 C23.7998474,63.1134133 23.0545343,63.7020802 22.2317605,63.6054638 C21.4089867,63.5088474 20.8203198,62.7635343 20.9169362,61.9407605 L21.8647,53.8707 L13.8155528,54.6683954 C13.0396536,54.7452489 12.3433841,54.2164158 12.196077,53.4666325 L12.1750046,53.3235528 C12.0933478,52.4991599 12.6954543,51.7646615 13.5198472,51.6830046 L23.4238472,50.7020046 Z" id="Stroke-13" fill-rule="nonzero"></path>
                    <path d="M59.4433118,6.06211729 L59.5875838,6.07218845 C60.4103288,6.16905027 60.9987734,6.91453887 60.9019116,7.73728384 L59.9512,15.8059 L68.0022275,15.0082165 C68.7781206,14.9313008 69.4744325,15.460078 69.6217997,16.2098495 L69.6428835,16.3529275 C69.7246065,17.1773139 69.1225588,17.9118606 68.2981725,17.9935835 L58.3921725,18.9755835 C57.4388646,19.0700867 56.6424789,18.2589259 56.7544884,17.3075162 L57.9224884,7.38651616 C58.0136525,6.61216795 58.6793787,6.04536613 59.4433118,6.06211729 Z" id="Stroke-14" fill-rule="nonzero"></path>
                    <polygon id="Fill-15" points="0 88.6131 7.426 88.6131 7.426 86.1571 0 86.1571"></polygon>
                    <polygon id="Fill-16" points="12.5694 79.504 8.9264 80.791 9.6004 83.128 12.2144 82.396 12.2144 93.364 14.9464 93.364 14.9464 79.504"></polygon>
                    <g transform="translate(17.061300, 77.325700)">
                        <path d="M8.376,9.1079 C8.376,6.1779 7.405,4.5539 5.544,4.5539 C3.683,4.5539 2.732,6.1779 2.732,9.1079 C2.732,12.0399 3.683,13.6429 5.544,13.6429 C7.405,13.6429 8.376,12.0399 8.376,9.1079 M0,9.1079 C0,4.8329 2.019,1.9009 5.544,1.9009 C9.088,1.9009 11.088,4.8329 11.088,9.1079 C11.088,13.3849 9.088,16.3169 5.544,16.3169 C2.019,16.3169 0,13.3849 0,9.1079" id="Fill-17"></path>
                        <path d="M22.7451,8.2768 C22.0321,10.9298 20.0721,11.6238 17.7951,10.5148 C15.7951,9.5838 15.2411,9.5838 14.7461,10.9898 L12.6671,9.9998 C13.3791,7.3458 15.3401,6.6528 17.6171,7.7428 C19.6171,8.6928 20.1511,8.6728 20.6651,7.2668 L22.7451,8.2768 Z" id="Fill-19"></path>
                        <path d="M31.4131,11.4848 C31.4131,10.0988 30.3841,9.2478 29.0971,9.2478 C27.8091,9.2478 26.7991,10.0788 26.7991,11.4848 C26.7991,12.8908 27.8091,13.7428 29.0971,13.7428 C30.3841,13.7428 31.4131,12.8908 31.4131,11.4848 M34.1261,11.4848 C34.1261,14.3168 32.0661,16.3168 29.0971,16.3168 C26.1271,16.3168 24.0871,14.3168 24.0871,11.4848 C24.0871,10.4158 24.3841,9.4648 24.8981,8.6928 L29.2161,2.1778 L32.3441,2.1778 L29.2741,6.6728 C32.1451,6.7528 34.1261,8.7138 34.1261,11.4848" id="Fill-21"></path>
                        <path d="M44.6553,11.7612 C44.6553,14.7322 42.3193,16.3172 39.7053,16.3172 C37.5483,16.3172 35.6663,15.3662 34.8743,13.3462 L37.2103,11.9802 C37.5483,13.0492 38.3193,13.6432 39.7053,13.6432 C41.1313,13.6432 41.9243,12.8912 41.9243,11.7612 C41.9243,10.6532 41.1313,9.8802 39.7843,9.8802 L35.5873,9.8802 L36.1413,2.1782 L44.0023,2.1782 L44.0023,4.7332 L38.6763,4.7332 L38.4983,7.2272 L39.9243,7.2272 C42.4583,7.2272 44.6553,8.7922 44.6553,11.7612" id="Fill-23"></path>
                        <path d="M49.0078,0 C50.9278,0 52.3348,1.465 52.3348,3.268 C52.3348,5.049 50.9678,6.535 49.0078,6.535 C47.0868,6.535 45.6818,5.049 45.6818,3.268 C45.6818,1.465 47.0868,0 49.0078,0 Z M49.0078,2.081 C48.3148,2.081 47.8398,2.594 47.8398,3.268 C47.8398,3.941 48.3148,4.456 49.0078,4.456 C49.6998,4.456 50.1758,3.961 50.1758,3.268 C50.1758,2.594 49.6998,2.081 49.0078,2.081 Z" id="Fill-25"></path>
                        <path d="M52.8262,9.1079 C52.8262,5.0489 55.8362,1.9009 60.0332,1.9009 C62.5672,1.9009 64.8052,3.1889 65.9932,5.1689 L63.6372,6.5349 C62.9642,5.3059 61.6182,4.5539 60.0332,4.5539 C57.3212,4.5539 55.5392,6.4359 55.5392,9.1079 C55.5392,11.7609 57.3212,13.6429 60.0332,13.6429 C61.6182,13.6429 62.9832,12.8909 63.6372,11.6819 L65.9932,13.0489 C64.8262,15.0289 62.5882,16.3169 60.0332,16.3169 C55.8362,16.3169 52.8262,13.1479 52.8262,9.1079" id="Fill-27"></path>
                    </g>
                </g>
            </g>
        </g>
    </g>
</svg>