<?xml version="1.0" encoding="UTF-8"?>
<svg width="100px" height="100px" viewBox="0 0 100 100" version="1.1" xmlns="http://www.w3.org/2000/svg" xmlns:xlink="http://www.w3.org/1999/xlink">
    <title>切片</title>
    <g id="页面-1" stroke="none" stroke-width="1" fill="none" fill-rule="evenodd">
        <g id="icon" transform="translate(-361.000000, -323.000000)" fill="#000000" fill-rule="nonzero">
            <g id="icon/Built-Fastest" transform="translate(361.000000, 323.000000)">
                <g id="shijian" transform="translate(3.986000, 8.000000)">
                    <path d="M52.051448,0 C63.2223325,0 73.7243281,4.35017259 81.6232904,12.2491349 C89.5222527,20.1480014 93.8723295,30.6502845 93.8723295,41.8209773 C93.8723295,52.9916702 89.522061,63.4938575 81.6231945,71.3928197 C73.724328,79.291782 63.2222366,83.6418588 52.0513521,83.6418588 C51.4591296,83.6418588 50.868786,83.6296319 50.2806096,83.6052976 L50.2804201,71.8979654 C50.6063085,71.3033693 51.2380401,70.9002064 51.963885,70.9002064 C53.0233583,70.9002064 53.8823181,71.7592621 53.8823181,72.8186395 L53.8823181,79.7601576 C73.3706276,78.8305918 89.0571345,63.1464798 89.9905324,43.6592242 L83.0420207,43.6592242 C81.9825475,43.6592242 81.1235877,42.8002643 81.1235877,41.7407912 C81.1235877,40.6813179 81.9825476,39.8223581 83.0420207,39.8223581 L89.9832514,39.8223581 C88.9719666,20.409349 73.3173617,4.80868053 53.8825096,3.88170134 L53.8825097,10.6627512 C53.8825097,11.7223203 53.0234541,12.5811843 51.9640767,12.5811843 C50.9046034,12.5811843 50.0456436,11.7222244 50.0456436,10.6627512 L50.0456436,3.88965286 C30.6917442,4.9015125 15.1280552,20.4675006 14.1198361,39.8222623 L20.8860368,39.8222623 C21.94551,39.8222623 22.8044698,40.6813179 22.8044698,41.7406953 C22.8044698,42.3912021 22.480619,42.9661183 21.9853914,43.3130368 L10.2563996,43.3126335 C10.2391374,42.8168612 10.2304706,42.3195851 10.2304706,41.8209773 C10.2304706,30.6502845 14.5807391,20.1480013 22.4796056,12.2490391 C30.3784721,4.35007682 40.8807551,0 52.051448,0 Z" id="形状结合"></path>
                    <path d="M53.9330931,40.9895127 L53.9330931,18.0640227 C53.9330931,17.0045495 53.0741333,16.1455897 52.01466,16.1455897 C50.9552826,16.1455897 50.096227,17.0044537 50.096227,18.0640227 L50.096227,41.9058578 C50.096227,42.6416164 50.5109534,43.2799444 51.119008,43.601743 L69.0385616,61.5212006 C69.4132428,61.8956902 69.9041318,62.0830788 70.3951165,62.0830788 C70.8861012,62.0830788 71.3769901,61.8956902 71.7516713,61.5212006 C72.5008421,60.7720298 72.5008421,59.5572617 71.7516713,58.8080908 L53.9330931,40.9895127 Z" id="路径"></path>
                    <g id="60’’" transform="translate(0.000000, 53.220306)">
                        <path d="M9.432,8.676 L15.012,0.504 L9.324,0.504 L1.476,12.348 C0.54,13.752 0,15.48 0,17.424 C0,22.572 3.708,26.208 9.108,26.208 C14.508,26.208 18.252,22.572 18.252,17.424 C18.252,12.384 14.652,8.82 9.432,8.676 Z M9.108,21.528 C6.768,21.528 4.932,19.98 4.932,17.424 C4.932,14.868 6.768,13.356 9.108,13.356 C11.448,13.356 13.32,14.904 13.32,17.424 C13.32,19.98 11.448,21.528 9.108,21.528 Z" id="形状"></path>
                        <path d="M28.62,26.208 C35.064,26.208 38.7,20.88 38.7,13.104 C38.7,5.328 35.064,0 28.62,0 C22.212,0 18.54,5.328 18.54,13.104 C18.54,20.88 22.212,26.208 28.62,26.208 Z M28.62,21.348 C25.236,21.348 23.508,18.432 23.508,13.104 C23.508,7.776 25.236,4.824 28.62,4.824 C32.004,4.824 33.768,7.776 33.768,13.104 C33.768,18.432 32.004,21.348 28.62,21.348 Z" id="形状"></path>
                        <polygon id="路径" points="45.684 0.468 40.644 0.468 39.204 10.476 42.984 10.476"></polygon>
                        <polygon id="路径" points="53.892 0.468 48.852 0.468 47.412 10.476 51.192 10.476"></polygon>
                    </g>
                </g>
            </g>
        </g>
    </g>
</svg>