<?xml version="1.0" encoding="UTF-8"?>
<svg width="100px" height="100px" viewBox="0 0 100 100" version="1.1" xmlns="http://www.w3.org/2000/svg" xmlns:xlink="http://www.w3.org/1999/xlink">
    <title>切片</title>
    <g id="页面-1" stroke="none" stroke-width="1" fill="none" fill-rule="evenodd">
        <g id="icon" transform="translate(-161.000000, -129.000000)">
            <g id="icon/conversion--efficiency-" transform="translate(161.000000, 129.000000)">
                <rect id="矩形" x="0" y="0" width="100" height="100"></rect>
                <g id="编组" transform="translate(4.000000, 13.000000)" fill="#000000">
                    <path d="M80.111,42.084 L11,42.084 C10.3751605,42.084 9.81576809,42.4713369 9.59591679,43.0562213 L-1.40408321,72.3202213 C-1.77275613,73.3010253 -1.04780544,74.348 1.77635684e-15,74.348 L91.525,74.348 C92.5806801,74.348 93.3060717,73.2864564 92.922465,72.302939 L81.508465,43.038939 C81.2838726,42.4631134 80.7290751,42.084 80.111,42.084 Z M79.085,45.084 L89.329,71.348 L2.166,71.348 L12.038,45.084 L79.085,45.084 Z" id="Stroke-1" fill-rule="nonzero"></path>
                    <path d="M85.7145,56.6123 C86.5429271,56.6123 87.2145,57.2838729 87.2145,58.1123 C87.2145,58.9407271 86.5429271,59.6123 85.7145,59.6123 L6.0185,59.6123 C5.19007288,59.6123 4.5185,58.9407271 4.5185,58.1123 C4.5185,57.2838729 5.19007288,56.6123 6.0185,56.6123 L85.7145,56.6123 Z" id="Stroke-3" fill-rule="nonzero"></path>
                    <g transform="translate(10.066200, 0.000000)">
                        <path d="M35.6965,42.6416 C36.5249271,42.6416 37.1965,43.3131729 37.1965,44.1416 L37.1965,72.8476 C37.1965,73.6760271 36.5249271,74.3476 35.6965,74.3476 C34.8680729,74.3476 34.1965,73.6760271 34.1965,72.8476 L34.1965,44.1416 C34.1965,43.3131729 34.8680729,42.6416 35.6965,42.6416 Z" id="Stroke-4" fill-rule="nonzero"></path>
                        <path d="M50.3266664,42.7006513 C51.1224803,42.4704957 51.954193,42.9290524 52.1843487,43.7248664 L60.4863487,72.4308664 C60.7165043,73.2266803 60.2579476,74.058393 59.4621336,74.2885487 C58.6663197,74.5187043 57.834607,74.0601476 57.6044513,73.2643336 L49.3024513,44.5583336 C49.0722957,43.7625197 49.5308524,42.930807 50.3266664,42.7006513 Z" id="Stroke-6" fill-rule="nonzero"></path>
                        <path d="M19.2086379,43.7249127 C19.438768,42.9290913 20.2704659,42.4705079 21.0662873,42.7006379 C21.8621087,42.930768 22.3206921,43.7624659 22.0905621,44.5582873 L13.7895621,73.2642873 C13.559432,74.0601087 12.7277341,74.5186921 11.9319127,74.2885621 C11.1360913,74.058432 10.6775079,73.2267341 10.9076379,72.4309127 L19.2086379,43.7249127 Z" id="Stroke-8" fill-rule="nonzero"></path>
                        <path d="M35.5933,14.4812 C46.6227271,14.4812 55.5643,23.4227729 55.5643,34.4522 C55.5643,35.2806271 54.8927271,35.9522 54.0643,35.9522 C53.2358729,35.9522 52.5643,35.2806271 52.5643,34.4522 C52.5643,25.0796271 44.9658729,17.4812 35.5933,17.4812 C26.2207271,17.4812 18.6223,25.0796271 18.6223,34.4522 C18.6223,35.2806271 17.9507271,35.9522 17.1223,35.9522 C16.2938729,35.9522 15.6223,35.2806271 15.6223,34.4522 C15.6223,23.4227729 24.5638729,14.4812 35.5933,14.4812 Z" id="Stroke-10" fill-rule="nonzero"></path>
                        <path d="M35.593,-1.5 C36.4214271,-1.5 37.093,-0.828427125 37.093,0 L37.093,8.925 C37.093,9.75342712 36.4214271,10.425 35.593,10.425 C34.7645729,10.425 34.093,9.75342712 34.093,8.925 L34.093,0 C34.093,-0.828427125 34.7645729,-1.5 35.593,-1.5 Z" id="Stroke-12" fill-rule="nonzero"></path>
                        <path d="M70.7717,33.8867 C71.6001271,33.8867 72.2717,34.5582729 72.2717,35.3867 C72.2717,36.2151271 71.6001271,36.8867 70.7717,36.8867 L61.8467,36.8867 C61.0182729,36.8867 60.3467,36.2151271 60.3467,35.3867 C60.3467,34.5582729 61.0182729,33.8867 61.8467,33.8867 L70.7717,33.8867 Z" id="Stroke-14" fill-rule="nonzero"></path>
                        <path d="M8.924,33.8867 C9.75242712,33.8867 10.424,34.5582729 10.424,35.3867 C10.424,36.2151271 9.75242712,36.8867 8.924,36.8867 L0,36.8867 C-0.828427125,36.8867 -1.5,36.2151271 -1.5,35.3867 C-1.5,34.5582729 -0.828427125,33.8867 0,33.8867 L8.924,33.8867 Z" id="Stroke-16" fill-rule="nonzero"></path>
                        <path d="M9.30908595,9.24107906 C9.88518574,8.64576357 10.8348054,8.63018616 11.4301209,9.20628595 L17.8431209,15.4122859 C18.4384364,15.9883857 18.4540138,16.9380054 17.8779141,17.5333209 C17.3018143,18.1286364 16.3521946,18.1442138 15.7568791,17.5681141 L9.34387906,11.3621141 C8.74856357,10.7860143 8.73298616,9.83639455 9.30908595,9.24107906 Z" id="Stroke-18" fill-rule="nonzero"></path>
                        <path d="M59.6385791,9.37428595 C60.2338946,8.79818616 61.1835143,8.81376357 61.7596141,9.40907906 C62.3357138,10.0043946 62.3201364,10.9540143 61.7248209,11.5301141 L55.3118209,17.7361141 C54.7165054,18.3122138 53.7668857,18.2966364 53.1907859,17.7013209 C52.6146862,17.1060054 52.6302636,16.1563857 53.2255791,15.5802859 L59.6385791,9.37428595 Z" id="Stroke-20" fill-rule="nonzero"></path>
                        <polygon id="Fill-22" points="37.673 19.8594 29.297 30.4004 34.661 30.3064 30.521 40.9414 40.967 28.0474 35.32 28.0474"></polygon>
                    </g>
                </g>
            </g>
        </g>
    </g>
</svg>