<?xml version="1.0" encoding="UTF-8"?>
<svg width="100px" height="100px" viewBox="0 0 100 100" version="1.1" xmlns="http://www.w3.org/2000/svg" xmlns:xlink="http://www.w3.org/1999/xlink">
    <title>切片</title>
    <g id="页面-1" stroke="none" stroke-width="1" fill="none" fill-rule="evenodd">
        <g id="icon" transform="translate(-961.000000, -129.000000)" fill="#000000">
            <g id="icon/Dual-Sided-Panels" transform="translate(961.000000, 129.000000)">
                <rect id="矩形" opacity="0" x="0" y="0" width="100" height="100"></rect>
                <g id="编组" transform="translate(4.000000, 17.000000)">
                    <g id="编组-35" transform="translate(0.000000, 33.801802)" fill-rule="nonzero">
                        <path d="M92,31.1570946 C92.7939093,31.1570946 93.4375,31.8006853 93.4375,32.5945946 C93.4375,33.3885039 92.7939093,34.0320946 92,34.0320946 L0,34.0320946 C-0.793909328,34.0320946 -1.4375,33.3885039 -1.4375,32.5945946 C-1.4375,31.8006853 -0.793909328,31.1570946 0,31.1570946 L92,31.1570946 Z" id="Stroke-5"></path>
                        <path d="M78.7917053,-1.45263158 L11.8631579,-1.45263158 C11.2585313,-1.45263158 10.717129,-1.0781139 10.5038774,-0.512342643 L-0.1487542,27.7498267 C-0.506841523,28.6998572 0.195250776,29.7148009 1.21052632,29.7148009 L89.8452632,29.7148009 C90.8681821,29.7148009 91.5706947,28.6857113 91.198106,27.7330618 L80.1445481,-0.529107528 C79.9267091,-1.08608687 79.3897687,-1.45263158 78.7917053,-1.45263158 Z M77.7995263,1.452 L87.7165263,26.809 L3.31052632,26.809 L12.8675263,1.452 L77.7995263,1.452 Z" id="Stroke-1"></path>
                        <path d="M84.2182526,12.5783032 C85.0205189,12.5783032 85.6708842,13.2286685 85.6708842,14.0309348 C85.6708842,14.833201 85.0205189,15.4835664 84.2182526,15.4835664 L7.03896842,15.4835664 C6.23670215,15.4835664 5.58633684,14.833201 5.58633684,14.0309348 C5.58633684,13.2286685 6.23670215,12.5783032 7.03896842,12.5783032 L84.2182526,12.5783032 Z" id="Stroke-3"></path>
                        <path d="M45.5280884,-0.914120588 C46.3303547,-0.914120588 46.98072,-0.263755277 46.98072,0.538510991 L46.98072,28.2617831 C46.98072,29.0640493 46.3303547,29.7144146 45.5280884,29.7144146 C44.7258222,29.7144146 44.0754568,29.0640493 44.0754568,28.2617831 L44.0754568,0.538510991 C44.0754568,-0.263755277 44.7258222,-0.914120588 45.5280884,-0.914120588 Z" id="Stroke-4"></path>
                        <path d="M59.6952259,-0.856637592 C60.4657452,-1.08009048 61.2715189,-0.636605545 61.4949717,0.133913741 L69.5348033,27.8571858 C69.7582562,28.6277051 69.3147713,29.4334788 68.544252,29.6569316 C67.7737327,29.8803845 66.967959,29.4368996 66.7445062,28.6663803 L58.7046746,0.943108241 C58.4812217,0.172588955 58.9247066,-0.633184701 59.6952259,-0.856637592 Z" id="Stroke-6"></path>
                        <path d="M29.5611921,0.133958696 C29.7846201,-0.63656779 30.5903795,-1.08007869 31.360906,-0.856650629 C32.1314325,-0.633222566 32.5749434,0.1725368 32.3515153,0.943063286 L24.3126521,28.6663354 C24.0892241,29.4368618 23.2834647,29.8803727 22.5129382,29.6569447 C21.7424117,29.4335166 21.2989008,28.6277573 21.5223289,27.8572308 L29.5611921,0.133958696 Z" id="Stroke-8"></path>
                    </g>
                    <path d="M29.6640774,19.1332965 C29.8140061,19.2201903 29.9906673,19.2802991 30.1099546,19.3981276 C31.5089952,20.7811343 32.8971914,22.1752072 34.2938362,23.5607289 C34.6622901,23.9262864 34.8733757,24.3466711 34.7943132,24.8697942 C34.7100807,25.4273731 34.400766,25.8317875 33.8609469,26.0138746 C33.3120489,26.1989797 32.7950533,26.1045545 32.3716213,25.6950964 C31.7719064,25.1152597 31.1870708,24.5203329 30.5964349,23.9313164 C29.102948,22.4423017 27.6075697,20.9551734 26.1174875,19.4628892 C25.4360621,18.7805656 25.2447737,17.9955037 25.5875039,17.2353404 C25.9588581,16.4117987 26.6294393,16.0677447 27.5184195,16.0678704 C39.7322518,16.0708885 51.9462101,16.069631 64.1600423,16.0707627 C64.9910182,16.0707627 65.5965336,16.5117706 65.7428055,17.2079267 C65.8828987,17.875789 65.5349985,18.5735799 64.8820708,18.8131351 C64.5965884,18.9178855 64.2663417,18.9344846 63.9563965,18.9346103 C52.7669721,18.9403948 41.5774217,18.9393888 30.3878713,18.9393888 L29.7934524,18.9393888 C29.7503274,19.0041505 29.7072024,19.0686606 29.6640774,19.1332965 M61.579175,6.9688102 C61.4296246,6.88078467 61.2542243,6.8189153 61.1346849,6.70083535 C59.7462364,5.32902041 58.3649754,3.95028917 56.9847232,2.57030044 C56.2881662,1.87376703 56.2418888,1.0067156 56.8608965,0.400596982 C57.4506498,-0.176724714 58.3422781,-0.127807672 59.0065544,0.532886772 C61.0486871,2.56413865 63.0879195,4.59828279 65.1251344,6.63443895 C65.8088296,7.31776853 65.9975961,8.09314766 65.6514612,8.8616105 C65.2808636,9.68452341 64.6129305,10.0307152 63.7221849,10.0304639 C51.5073439,10.0269427 39.2925028,10.0285775 27.0777879,10.0271942 C26.1324425,10.0271942 25.479641,9.44371072 25.4703305,8.60633647 C25.4608526,7.74620134 26.1048274,7.16246635 27.0975851,7.16196335 C33.6225741,7.15819083 40.1476893,7.15982559 46.6726783,7.15982559 C51.4168066,7.15969984 56.1608088,7.15982559 60.9049371,7.15982559 L61.4530785,7.15982559 C61.4950686,7.09606996 61.5371849,7.03244008 61.579175,6.9688102" id="形状结合"></path>
                </g>
            </g>
        </g>
    </g>
</svg>