<?xml version="1.0" encoding="UTF-8"?>
<svg width="100px" height="100px" viewBox="0 0 100 100" version="1.1" xmlns="http://www.w3.org/2000/svg" xmlns:xlink="http://www.w3.org/1999/xlink">
    <title>切片</title>
    <g id="页面-1" stroke="none" stroke-width="1" fill="none" fill-rule="evenodd">
        <g id="icon" transform="translate(-561.000000, -129.000000)" fill="#000000" fill-rule="nonzero">
            <g id="icon/Fodable-&amp;-Portable" transform="translate(561.000000, 129.000000)">
                <g id="编组" transform="translate(3.000000, 29.000000)">
                    <path d="M46.1397,-1.5 L16.6467,-1.5 C16.0482424,-1.5 15.5070492,-1.14426723 15.2697065,-0.594885734 L-0.811293451,36.6281143 C-1.23911522,37.6184015 -0.513049441,38.723 0.5657,38.723 L46.1397,38.723 C46.9681271,38.723 47.6397,38.0514271 47.6397,37.223 L47.6397,0 C47.6397,-0.828427125 46.9681271,-1.5 46.1397,-1.5 Z M44.6397,1.5 L44.6397,35.723 L2.8467,35.723 L17.6317,1.5 L44.6397,1.5 Z" id="Stroke-1"></path>
                    <path d="M79.0717,-1.5 L50.0117,-1.5 C49.1832729,-1.5 48.5117,-0.828427125 48.5117,0 L48.5117,37.223 C48.5117,38.0514271 49.1832729,38.723 50.0117,38.723 L95.1537,38.723 C96.2324641,38.723 96.95853,37.6183741 96.53068,36.6280831 L80.44868,-0.594916908 C80.2113298,-1.14428171 79.6701453,-1.5 79.0717,-1.5 Z M78.0857,1.5 L92.8717,35.723 L51.5117,35.723 L51.5117,1.5 L78.0857,1.5 Z" id="Stroke-3"></path>
                    <path d="M95.436,40.2884 C96.2644271,40.2884 96.936,40.9599729 96.936,41.7884 C96.936,42.6168271 96.2644271,43.2884 95.436,43.2884 L0,43.2884 C-0.828427125,43.2884 -1.5,42.6168271 -1.5,41.7884 C-1.5,40.9599729 -0.828427125,40.2884 0,40.2884 L95.436,40.2884 Z" id="Stroke-5"></path>
                    <path d="M31.994799,-0.839871791 C32.7872568,-0.598413464 33.2339301,0.239741167 32.9924718,1.03219898 L29.9776,10.924 L39.2468,10.9241 C40.0752271,10.9241 40.7468,11.5956729 40.7468,12.4241 C40.7468,13.2525271 40.0752271,13.9241 39.2468,13.9241 L29.0636,13.924 L26.3646,22.782 L39.2476,22.7825 C40.0760271,22.7825 40.7476,23.4540729 40.7476,24.2825 C40.7476,25.1109271 40.0760271,25.7825 39.2476,25.7825 L25.4506,25.782 L21.9804718,37.173199 C21.7390135,37.9656568 20.9008588,38.4123301 20.108401,38.1708718 C19.3159432,37.9294135 18.8692699,37.0912588 19.1107282,36.298801 L22.3146,25.782 L7.0596,25.7825 C6.23117288,25.7825 5.5596,25.1109271 5.5596,24.2825 C5.5596,23.4540729 6.23117288,22.7825 7.0596,22.7825 L23.2286,22.782 L25.9276,13.924 L12.4238,13.9241 C11.5953729,13.9241 10.9238,13.2525271 10.9238,12.4241 C10.9238,11.5956729 11.5953729,10.9241 12.4238,10.9241 L26.8426,10.924 L30.1227282,0.157801025 C30.3641865,-0.634656783 31.2023412,-1.08133012 31.994799,-0.839871791 Z M65.4631718,0.157801025 L68.7426,10.924 L82.8242,10.9241 C83.6526271,10.9241 84.3242,11.5956729 84.3242,12.4241 C84.3242,13.2525271 83.6526271,13.9241 82.8242,13.9241 L69.6576,13.924 L72.3566,22.782 L88.1885,22.7825 C89.0169271,22.7825 89.6885,23.4540729 89.6885,24.2825 C89.6885,25.1109271 89.0169271,25.7825 88.1885,25.7825 L73.2706,25.782 L76.4751718,36.298801 C76.7166301,37.0912588 76.2699568,37.9294135 75.477499,38.1708718 C74.6850412,38.4123301 73.8468865,37.9656568 73.6054282,37.173199 L70.1336,25.782 L56.0005,25.7825 C55.1720729,25.7825 54.5002,25.1109271 54.5002,24.2825 C54.5002,23.4540729 55.1720729,22.7825 56.0005,22.7825 L69.2196,22.782 L66.5206,13.924 L56.0002,13.9241 C55.1717729,13.9241 54.5002,13.2525271 54.5002,12.4241 C54.5002,11.5956729 55.1717729,10.9241 56.0002,10.9241 L65.6066,10.924 L62.5934282,1.03219898 C62.3519699,0.239741167 62.7986432,-0.598413464 63.591101,-0.839871791 C64.3835588,-1.08133012 65.2217135,-0.634656783 65.4631718,0.157801025 Z" id="形状结合"></path>
                </g>
            </g>
        </g>
    </g>
</svg>