<?xml version="1.0" encoding="UTF-8"?>
<svg width="100px" height="100px" viewBox="0 0 100 100" version="1.1" xmlns="http://www.w3.org/2000/svg" xmlns:xlink="http://www.w3.org/1999/xlink">
    <title>切片</title>
    <g id="页面-1" stroke="none" stroke-width="1" fill="none" fill-rule="evenodd">
        <g id="icon" transform="translate(-1161.000000, -129.000000)">
            <g id="icon/IBC-solar-technology" transform="translate(1161.000000, 129.000000)">
                <rect id="矩形" x="0" y="0" width="100" height="100"></rect>
                <g id="编组" transform="translate(4.500300, 5.500000)">
                    <path d="M89.921,28.496 L1.5,28.496 C0.671572875,28.496 0,29.1675729 0,29.996 L0,84.605 C0,86.9606887 1.90883434,88.87 4.265,88.87 L87.157,88.87 C89.5124042,88.87 91.421,86.9604502 91.421,84.605 L91.421,29.996 C91.421,29.1675729 90.7494271,28.496 89.921,28.496 Z M88.421,31.496 L88.421,84.605 C88.421,85.3039315 87.8552143,85.87 87.157,85.87 L4.265,85.87 L4.13557814,85.8634729 C3.49733472,85.7987307 3,85.2603146 3,84.605 L3,31.496 L88.421,31.496 Z" id="Stroke-1" fill="#000000" fill-rule="nonzero"></path>
                    <path d="M28.784,0 L20.363,0 C19.5345729,0 18.863,0.671572875 18.863,1.5 L18.863,18.342 C18.863,19.1704271 19.5345729,19.842 20.363,19.842 L28.784,19.842 C29.6124271,19.842 30.284,19.1704271 30.284,18.342 L30.284,1.5 C30.284,0.671572875 29.6124271,0 28.784,0 Z M27.283,3 L27.283,16.841 L21.863,16.841 L21.863,3 L27.283,3 Z" id="Stroke-3" fill="#000000" fill-rule="nonzero"></path>
                    <path d="M71.059,0 L62.637,0 C61.8085729,0 61.137,0.671572875 61.137,1.5 L61.137,18.342 C61.137,19.1704271 61.8085729,19.842 62.637,19.842 L71.059,19.842 C71.8874271,19.842 72.559,19.1704271 72.559,18.342 L72.559,1.5 C72.559,0.671572875 71.8874271,0 71.059,0 Z M69.558,3 L69.558,16.841 L64.137,16.841 L64.137,3 L69.558,3 Z" id="Stroke-5" fill="#000000" fill-rule="nonzero"></path>
                    <path d="M36.6241,69.9482 L34.0051,77.1422 C33.2571,79.2152 32.0341,80.1212 30.2071,80.0202 L30.2071,78.2942 C31.2281,78.3072 31.7461,77.8762 32.0921,76.9122 L29.1421,69.9482 L31.1711,69.9482 L33.0411,74.7832 L34.6391,69.9482 L36.6241,69.9482 Z" id="Fill-10" fill="#000000"></path>
                    <path d="M42.421,72.8691 C42.191,71.8331 41.414,71.4161 40.637,71.4161 C39.644,71.4161 38.968,71.9481 38.752,72.8691 L42.421,72.8691 Z M40.81,75.6601 C41.529,75.6601 42.105,75.3581 42.421,74.9411 L43.918,75.8051 C43.241,76.7831 42.162,77.3441 40.78,77.3441 C38.363,77.3441 36.838,75.6891 36.838,73.5451 C36.838,71.4011 38.378,69.7471 40.637,69.7471 C42.767,69.7471 44.277,71.4301 44.277,73.5451 C44.277,73.8181 44.248,74.0631 44.205,74.3071 L38.78,74.3071 C39.04,75.2581 39.831,75.6601 40.81,75.6601 L40.81,75.6601 Z" id="Fill-11" fill="#000000"></path>
                    <path d="M50.9796,73.5448 C50.9796,72.3368 50.1306,71.5168 48.9796,71.5168 C47.8426,71.5168 46.9946,72.3368 46.9946,73.5448 C46.9946,74.7538 47.8426,75.5738 48.9796,75.5738 C50.1306,75.5738 50.9796,74.7538 50.9796,73.5448 L50.9796,73.5448 Z M52.8356,69.9478 L52.8356,77.1428 L50.9796,77.1428 L50.9796,76.2938 C50.4616,76.9408 49.6846,77.3438 48.6346,77.3438 C46.7206,77.3438 45.1376,75.6898 45.1376,73.5448 C45.1376,71.4008 46.7206,69.7468 48.6346,69.7468 C49.6846,69.7468 50.4616,70.1488 50.9796,70.7968 L50.9796,69.9478 L52.8356,69.9478 Z" id="Fill-12" fill="#000000"></path>
                    <path d="M58.5606,69.8036 L58.5606,71.8756 C57.5956,71.7606 56.3726,72.1926 56.3726,73.7026 L56.3726,77.1426 L54.5166,77.1426 L54.5166,69.9486 L56.3726,69.9486 L56.3726,71.1856 C56.7476,70.2066 57.6536,69.8036 58.5606,69.8036" id="Fill-13" fill="#000000"></path>
                    <path d="M64.8331,75.0419 C64.8331,76.5959 63.4801,77.3439 61.9411,77.3439 C60.5021,77.3439 59.4371,76.7389 58.9191,75.6319 L60.5311,74.7259 C60.7321,75.3149 61.2221,75.6599 61.9411,75.6599 C62.5311,75.6599 62.9341,75.4589 62.9341,75.0419 C62.9341,73.9909 59.2221,74.5669 59.2221,72.0339 C59.2221,70.5659 60.4741,69.7469 61.9551,69.7469 C63.1211,69.7469 64.1281,70.2789 64.6891,71.2709 L63.1061,72.1349 C62.8911,71.6749 62.4871,71.4009 61.9551,71.4009 C61.4951,71.4009 61.1211,71.6029 61.1211,71.9909 C61.1211,73.0559 64.8331,72.3949 64.8331,75.0419" id="Fill-14" fill="#000000"></path>
                    <path d="M71.0587,9.9208 L87.1577,9.9208 C88.6837,9.9208 89.9207,11.1578 89.9207,12.6858 L89.9207,29.9958 L1.4997,29.9958 L1.4997,12.6858 C1.4997,11.1578 2.7377,9.9208 4.2647,9.9208 L20.3637,9.9208 L4.2647,9.9208 C2.7377,9.9208 1.4997,11.1578 1.4997,12.6858 L1.4997,29.9958 L89.9207,29.9958 L89.9207,12.6858 C89.9207,11.1578 88.6837,9.9208 87.1577,9.9208 L71.0587,9.9208 Z" id="Stroke-6" stroke="#000000" stroke-width="3" stroke-linecap="round" stroke-linejoin="round"></path>
                    <path d="M62.6368,9.9208 L28.7838,9.9208 L62.6368,9.9208 Z" id="Stroke-7" stroke="#000000" stroke-width="3" stroke-linecap="round" stroke-linejoin="round"></path>
                    <g id="40" transform="translate(21.922000, 36.867065)" fill="#000000" fill-rule="nonzero">
                        <polygon id="路径" points="20.33 18.734 17.1 18.734 17.1 11.21 13.566 11.21 13.566 18.734 3.8 18.734 13.338 0.494 9.538 0.494 0 18.734 0 22.04 13.566 22.04 13.566 27.094 17.1 27.094 17.1 22.04 20.33 22.04"></polygon>
                        <path d="M33.098,27.588 C39.71,27.588 43.358,22.002 43.358,13.794 C43.358,5.586 39.71,0 33.098,0 C26.524,0 22.838,5.586 22.838,13.794 C22.838,22.002 26.524,27.588 33.098,27.588 Z M33.098,24.13 C28.804,24.13 26.372,20.406 26.372,13.794 C26.372,7.182 28.804,3.42 33.098,3.42 C37.392,3.42 39.862,7.182 39.862,13.794 C39.862,20.406 37.392,24.13 33.098,24.13 Z" id="形状"></path>
                    </g>
                </g>
            </g>
        </g>
    </g>
</svg>