<?xml version="1.0" encoding="UTF-8"?>
<svg width="100px" height="100px" viewBox="0 0 100 100" version="1.1" xmlns="http://www.w3.org/2000/svg" xmlns:xlink="http://www.w3.org/1999/xlink">
    <title>切片</title>
    <g id="页面-1" stroke="none" stroke-width="1" fill="none" fill-rule="evenodd">
        <g id="icon" transform="translate(-761.000000, -323.000000)" fill="#000000">
            <g id="icon/Recharging-Time-" transform="translate(761.000000, 323.000000)">
                <rect id="矩形" opacity="0" x="0" y="0" width="100" height="100"></rect>
                <g id="编组" transform="translate(8.888889, 13.333333)">
                    <path d="M7.61672747,38.8431279 C7.12394522,39.5138365 6.72796867,40.0487021 6.33662645,40.586661 C5.20018921,42.1484686 4.07585269,43.7192981 2.92602743,45.2713106 C2.25070462,46.1835465 1.34495333,46.3724894 0.600888174,45.8041141 C-0.120777792,45.2522359 -0.204967863,44.3789227 0.416545387,43.4916902 C1.1371815,42.4637171 1.88613844,41.4561076 2.62144989,40.4381874 C4.12966224,38.3507937 5.63195297,36.259018 7.14634441,34.1760064 C7.93520796,33.0908091 8.69806784,32.9503263 9.76576273,33.7218217 C12.869467,35.9643908 15.9662199,38.2170129 19.0555063,40.4799456 C19.9712987,41.1503964 20.1739212,42.0567037 19.6327361,42.8065466 C19.0807376,43.5718556 18.187602,43.6566608 17.2548172,42.9856944 C15.1431139,41.4677071 13.0450561,39.9309028 10.6794953,38.2110843 C10.8656404,39.8780607 10.9534349,41.2978389 11.1908149,42.6926138 C13.7448378,57.6966903 25.7106414,69.1172959 40.7258248,70.9121245 C58.8151044,73.0745283 75.3979739,60.4839202 78.2946788,42.3884493 C81.287417,23.6928978 68.2395006,6.06785084 49.44632,3.4466226 C48.0483013,3.25149331 46.6307156,3.17467887 45.2190515,3.102762 C43.9065103,3.03574269 43.1984898,2.53026244 43.1961726,1.54353202 C43.1941129,0.549584127 43.9178386,-0.00435623001 45.2128724,0 C60.8812369,0.0513213489 75.082068,10.518964 79.9923831,25.6359422 C86.9088421,46.9284919 73.4749903,69.5575612 51.5103928,73.6142915 C31.1276417,77.3784567 11.78272,63.8408142 8.20374082,43.2939832 C7.95786461,41.881938 7.82578661,40.4503024 7.61672747,38.8431279" id="Fill-3"></path>
                    <path d="M43.1883458,23.8701381 C43.1883458,19.7466463 43.1880883,15.6234122 43.1891182,11.4999204 C43.1891182,11.2101908 43.1610548,10.9135015 43.2122897,10.6320204 C43.3644498,9.79840329 43.8762842,9.29627401 44.7292558,9.29420388 C45.5837722,9.29189198 46.1038454,9.79453679 46.2495689,10.6271228 C46.3152217,11.0029465 46.2771173,11.3981026 46.2771173,11.7842369 C46.2781472,19.5479082 46.2969419,27.3115795 46.2516286,35.0747353 C46.2464793,35.9614523 46.5577509,36.3643414 47.288428,36.7566622 C52.1310306,39.3564958 56.9496893,42.0014385 61.7752994,44.6327197 C63.2358813,45.4289606 63.6382944,46.2066424 63.088613,47.1596054 C62.5605585,48.0746767 61.6905944,48.1520067 60.3057064,47.3959773 C55.0295377,44.5162092 49.7634101,41.6186552 44.4715363,38.7677569 C43.5238188,38.2573791 43.162857,37.5897637 43.1721999,36.5300853 C43.2110024,32.3104466 43.1883458,28.0900346 43.1883458,23.8701381" id="Fill-5"></path>
                    <path d="M13.963526,20.8673203 C13.1100395,20.8701476 12.351814,20.1280377 12.353613,19.2915852 C12.355161,18.4595147 13.0412972,17.7769488 13.8831979,17.7697313 C14.7611433,17.7625139 15.4871861,18.4703409 15.4846183,19.3307657 C15.4817794,20.1612896 14.7856022,20.8644768 13.963526,20.8673203" id="Fill-7"></path>
                    <path d="M26.8875259,7.85525578 C26.0675095,7.8142709 25.386265,7.05179739 25.4326082,6.22720213 C25.4812685,5.36136423 26.2590612,4.69787308 27.1462752,4.76489239 C28.004911,4.82984956 28.6022228,5.53922316 28.5355401,6.41511396 C28.4732343,7.23713155 27.7180983,7.89701397 26.8875259,7.85525578" id="Fill-9"></path>
                    <path d="M19.6389925,13.5095201 C18.8004387,13.5334924 18.0952504,12.8560819 18.0736235,12.00571 C18.0517393,11.1470895 18.707495,10.4518931 19.5581494,10.4315295 C20.3967031,10.411166 21.1196564,11.0919275 21.1446302,11.9247713 C21.1690891,12.7375093 20.4579791,13.4860634 19.6389925,13.5095201" id="Fill-11"></path>
                    <path d="M35.5761215,1.19812482 C36.4154476,1.22364371 37.0706884,1.92863527 37.0516362,2.78648241 C37.0328415,3.64768052 36.355459,4.29055035 35.4914165,4.26735135 C34.6389599,4.2446679 33.970846,3.54508943 33.9968497,2.70296605 C34.0225959,1.87501983 34.7589372,1.17337922 35.5761215,1.19812482" id="Fill-13"></path>
                    <path d="M11.8927735,27.8726858 C11.8963637,28.7189334 11.2151193,29.3955707 10.3569984,29.3976376 C9.49115376,29.399695 8.82020781,28.7398125 8.81788362,27.883512 C8.81531603,27.0501527 9.51998951,26.3338194 10.3459276,26.3301953 C11.162597,26.3263442 11.8891548,27.0511837 11.8927735,27.8726858" id="Fill-15"></path>
                </g>
            </g>
        </g>
    </g>
</svg>