<?xml version="1.0" encoding="UTF-8"?>
<svg width="100px" height="100px" viewBox="0 0 100 100" version="1.1" xmlns="http://www.w3.org/2000/svg" xmlns:xlink="http://www.w3.org/1999/xlink">
    <title>切片</title>
    <g id="页面-1" stroke="none" stroke-width="1" fill="none" fill-rule="evenodd">
        <g id="icon" transform="translate(-161.000000, -323.000000)" fill="#000000">
            <g id="icon/Sustainable-Energy-Saving-" transform="translate(161.000000, 323.000000)">
                <rect id="矩形" opacity="0" x="0" y="0" width="100" height="100"></rect>
                <g id="leijifadianliang" transform="translate(10.606061, 10.505051)" fill-rule="nonzero">
                    <path d="M37.98151,75.036075 C17.0379815,75.036075 0,58.2047072 0,37.5180375 C0,16.8313679 17.0379815,0 37.98151,0 C58.9250385,0 75.96302,16.8313679 75.96302,37.5180375 C75.96302,38.2325423 75.3766441,38.8117629 74.6533128,38.8117629 C73.9299815,38.8117629 73.3436055,38.2325423 73.3436055,37.5180375 C73.3436055,18.2570533 57.4804314,2.58745086 37.98151,2.58745086 C18.4825886,2.58745086 2.61941448,18.2570533 2.61941448,37.5180375 C2.61941448,56.7790217 18.4825886,72.4486242 37.98151,72.4486242 C38.7048414,72.4486242 39.2912173,73.0278448 39.2912173,73.7423496 C39.2912173,74.4568544 38.7048414,75.036075 37.98151,75.036075 Z" id="路径"></path>
                    <path d="M30.1232666,64.0394097 C29.7248238,64.0394097 29.3480574,63.8602086 29.0995565,63.5525546 C28.8510555,63.2449007 28.7578477,62.842236 28.846302,62.4584764 L33.5429122,42.0460765 L20.9553159,42.0460765 C20.4629553,42.0456579 20.0124306,41.7725089 19.7891506,41.3390412 C19.5658707,40.9055735 19.6075641,40.3850321 19.8970724,39.9916405 L40.8523883,11.529681 C41.216557,11.029418 41.8876022,10.852665 42.4555809,11.1074009 C43.0235596,11.3621368 43.3305061,11.9775146 43.188906,12.5775986 L38.4922958,32.9899985 L51.0798921,32.9899985 C51.5722527,32.9904171 52.0227774,33.2635661 52.2460574,33.6970338 C52.4693373,34.1305015 52.4276439,34.651043 52.1381356,35.0444345 L31.1828197,63.506394 C30.9366246,63.84165 30.5425547,64.0394097 30.1232666,64.0394097 L30.1232666,64.0394097 Z M23.5275809,39.4586257 L35.1839753,39.4586257 C35.5822411,39.4591362 35.9586783,39.6384481 36.2070691,39.9459657 C36.4554599,40.2534832 36.5488691,40.6558598 36.4609399,41.0395581 L32.8134052,56.8928696 L48.5063174,35.5774494 L36.849923,35.5774494 C36.4516572,35.5769389 36.07522,35.3976269 35.8268292,35.0901094 C35.5784384,34.7825918 35.4850292,34.3802153 35.5729584,33.9965169 L39.2204931,18.1432055 L23.5275809,39.4586257 L23.5275809,39.4586257 Z M75.96302,49.8084291 L53.6979969,49.8084291 C52.9746656,49.8084291 52.3882897,49.2292085 52.3882897,48.5147037 C52.3882897,47.8001989 52.9746656,47.2209783 53.6979969,47.2209783 L75.96302,47.2209783 C76.6863514,47.2209783 77.2727273,47.8001989 77.2727273,48.5147037 C77.2727273,49.2292085 76.6863514,49.8084291 75.96302,49.8084291 Z M75.96302,57.5707817 L48.459168,57.5707817 C47.7358366,57.5707817 47.1494607,56.9915611 47.1494607,56.2770563 C47.1494607,55.5625515 47.7358366,54.9833308 48.459168,54.9833308 L75.96302,54.9833308 C76.6863514,54.9833308 77.2727273,55.5625515 77.2727273,56.2770563 C77.2727273,56.9915611 76.6863514,57.5707817 75.96302,57.5707817 Z M75.96302,65.3331343 L39.2912173,65.3331343 C38.5678859,65.3331343 37.98151,64.7539137 37.98151,64.0394089 C37.98151,63.324904 38.5678859,62.7456834 39.2912173,62.7456834 L75.96302,62.7456834 C76.6863514,62.7456834 77.2727273,63.324904 77.2727273,64.0394089 C77.2727273,64.7539137 76.6863514,65.3331343 75.96302,65.3331343 Z" id="形状"></path>
                </g>
            </g>
        </g>
    </g>
</svg>