<?xml version="1.0" encoding="UTF-8"?>
<svg width="100px" height="100px" viewBox="0 0 100 100" version="1.1" xmlns="http://www.w3.org/2000/svg" xmlns:xlink="http://www.w3.org/1999/xlink">
    <title>切片</title>
    <g id="页面-1" stroke="none" stroke-width="1" fill="none" fill-rule="evenodd">
        <g id="icon" transform="translate(-561.000000, -323.000000)" fill="#000000">
            <g id="icon/2-USB-Outputs" transform="translate(561.000000, 323.000000)">
                <rect id="矩形" opacity="0" x="0" y="0" width="100" height="100"></rect>
                <g id="编组-33" transform="translate(8.000000, 10.000000)" fill-rule="nonzero">
                    <path d="M76.6229508,33 C80.6971826,33 84,36.3028174 84,40.3770492 L84,72.8360656 C84,76.9102973 80.6971826,80.2131148 76.6229508,80.2131148 L7.37704918,80.2131148 C3.30281742,80.2131148 0,76.9102973 0,72.8360656 L0,40.3770492 C0,36.3028174 3.30281742,33 7.37704918,33 L76.6229508,33 Z M76.6229508,35.5 L7.37704918,35.5 C4.68352929,35.5 2.5,37.6835293 2.5,40.3770492 L2.5,72.8360656 C2.5,75.5295855 4.68352929,77.7131148 7.37704918,77.7131148 L76.6229508,77.7131148 C79.3164707,77.7131148 81.5,75.5295855 81.5,72.8360656 L81.5,40.3770492 C81.5,37.6835293 79.3164707,35.5 76.6229508,35.5 Z" id="矩形"></path>
                    <path d="M84,51.9672131 L84,72.6229508 L0,72.6229508 L0,51.9672131 L84,51.9672131 Z M81.5,54.4672131 L2.5,54.4672131 L2.5,70.1222131 L81.5,70.1222131 L81.5,54.4672131 Z" id="矩形"></path>
                    <path d="M36.0526316,33 L36.0526316,40.0491803 C36.0526316,41.678873 34.7315046,43 33.1018119,43 L21.0034513,43 C19.3737585,43 18.0526316,41.678873 18.0526316,40.0491803 L18.0526316,33 L36.0526316,33 Z M66.0526316,33 L66.0526316,40.0491803 C66.0526316,41.678873 64.7315046,43 63.1018119,43 L51.0034513,43 C49.3737585,43 48.0526316,41.678873 48.0526316,40.0491803 L48.0526316,33 L66.0526316,33 Z M33.5526316,35.5 L20.5526316,35.5 L20.5526316,40.0491803 C20.5526316,40.2704966 20.7121092,40.4545649 20.9224158,40.4927367 L21.0034513,40.5 L33.1018119,40.5 C33.3507927,40.5 33.5526316,40.2981612 33.5526316,40.0491803 L33.5526316,35.5 Z M63.5526316,35.5 L50.5526316,35.5 L50.5526316,40.0491803 C50.5526316,40.2704966 50.7121092,40.4545649 50.9224158,40.4927367 L51.0034513,40.5 L63.1018119,40.5 C63.3507927,40.5 63.5526316,40.2981612 63.5526316,40.0491803 L63.5526316,35.5 Z" id="形状结合"></path>
                    <path d="M58.5,0 C65.4035594,0 71,5.59644063 71,12.5 C71,19.4035594 65.4035594,25 58.5,25 L25.5,25 C18.5964406,25 13,19.4035594 13,12.5 C13,5.59644063 18.5964406,0 25.5,0 L58.5,0 Z M58.5,2.5 L25.5,2.5 C19.9771525,2.5 15.5,6.9771525 15.5,12.5 C15.5,18.0228475 19.9771525,22.5 25.5,22.5 L58.5,22.5 C64.0228475,22.5 68.5,18.0228475 68.5,12.5 C68.5,7.07076009 64.1733292,2.65206828 58.7799048,2.5038418 L58.5,2.5 Z" id="矩形"></path>
                    <path d="M61,11.25 C61.6903559,11.25 62.25,11.8096441 62.25,12.5 C62.25,13.1903559 61.6903559,13.75 61,13.75 L23,13.75 C22.3096441,13.75 21.75,13.1903559 21.75,12.5 C21.75,11.8096441 22.3096441,11.25 23,11.25 L61,11.25 Z" id="直线"></path>
                </g>
            </g>
        </g>
    </g>
</svg>