<?xml version="1.0" encoding="UTF-8"?>
<svg width="100px" height="100px" viewBox="0 0 100 100" version="1.1" xmlns="http://www.w3.org/2000/svg" xmlns:xlink="http://www.w3.org/1999/xlink">
    <title>切片</title>
    <g id="页面-1" stroke="none" stroke-width="1" fill="none" fill-rule="evenodd">
        <g id="icon" transform="translate(-761.000000, -129.000000)" fill="#000000">
            <g id="icon/Waterproof" transform="translate(761.000000, 129.000000)">
                <rect id="矩形" opacity="0" x="0" y="0" width="100" height="100"></rect>
                <g id="编组" transform="translate(5.500000, 9.499900)" fill-rule="nonzero">
                    <path d="M90.189,67.7869 C91.0174271,67.7869 91.689,68.4584729 91.689,69.2869 C91.689,70.1153271 91.0174271,70.7869 90.189,70.7869 L1.4899193e-13,70.7869 C-0.828427125,70.7869 -1.5,70.1153271 -1.5,69.2869 C-1.5,68.4584729 -0.828427125,67.7869 1.4899193e-13,67.7869 L90.189,67.7869 Z M90.189,81.1112 C91.0174271,81.1112 91.689,81.7827729 91.689,82.6112 C91.689,83.4396271 91.0174271,84.1112 90.189,84.1112 L1.4899193e-13,84.1112 C-0.828427125,84.1112 -1.5,83.4396271 -1.5,82.6112 C-1.5,81.7827729 -0.828427125,81.1112 1.4899193e-13,81.1112 L90.189,81.1112 Z M85.4014148,72.2699595 C86.0048635,71.7023847 86.9541656,71.7314662 87.5217405,72.3349148 L89.7367405,74.6899148 C90.3043153,75.2933635 90.2752338,76.2426656 89.6717852,76.8102405 C89.0683365,77.3778153 88.1190344,77.3487338 87.5514595,76.7452852 L85.3364595,74.3902852 C84.7688847,73.7868365 84.7979662,72.8375344 85.4014148,72.2699595 Z M71.8972687,72.2701911 C72.5005895,71.7024803 73.4498982,71.7313479 74.0176089,72.3346687 L76.2336089,74.6896687 C76.8013197,75.2929895 76.7724521,76.2422982 76.1691313,76.8100089 C75.5658105,77.3777197 74.6165018,77.3488521 74.0487911,76.7455313 L71.8327911,74.3905313 C71.2650803,73.7872105 71.2939479,72.8379018 71.8972687,72.2701911 Z M58.3943687,72.2701911 C58.9976895,71.7024803 59.9469982,71.7313479 60.5147089,72.3346687 L62.7307089,74.6896687 C63.2984197,75.2929895 63.2695521,76.2422982 62.6662313,76.8100089 C62.0629105,77.3777197 61.1136018,77.3488521 60.5458911,76.7455313 L58.3298911,74.3905313 C57.7621803,73.7872105 57.7910479,72.8379018 58.3943687,72.2701911 Z M44.8894687,72.2701911 C45.4927895,71.7024803 46.4420982,71.7313479 47.0098089,72.3346687 L49.2258089,74.6896687 C49.7935197,75.2929895 49.7646521,76.2422982 49.1613313,76.8100089 C48.5580105,77.3777197 47.6087018,77.3488521 47.0409911,76.7455313 L44.8249911,74.3905313 C44.2572803,73.7872105 44.2861479,72.8379018 44.8894687,72.2701911 Z M31.3862228,72.2704226 C31.9894157,71.7025759 32.9387308,71.7312298 33.5065774,72.3344228 L35.7235774,74.6894228 C36.2914241,75.2926157 36.2627702,76.2419308 35.6595772,76.8097774 C35.0563843,77.3776241 34.1070692,77.3489702 33.5392226,76.7457772 L31.3222226,74.3907772 C30.7543759,73.7875843 30.7830298,72.8382692 31.3862228,72.2704226 Z M17.8823228,72.2704226 C18.4855157,71.7025759 19.4348308,71.7312298 20.0026774,72.3344228 L22.2196774,74.6894228 C22.7875241,75.2926157 22.7588702,76.2419308 22.1556772,76.8097774 C21.5524843,77.3776241 20.6031692,77.3489702 20.0353226,76.7457772 L17.8183226,74.3907772 C17.2504759,73.7875843 17.2791298,72.8382692 17.8823228,72.2704226 Z M4.38191482,72.2699595 C4.98536348,71.7023847 5.9346656,71.7314662 6.50224045,72.3349148 L8.71724045,74.6899148 C9.28481531,75.2933635 9.25573384,76.2426656 8.65228518,76.8102405 C8.04883652,77.3778153 7.0995344,77.3487338 6.53195955,76.7452852 L4.31695955,74.3902852 C3.74938469,73.7868365 3.77846616,72.8375344 4.38191482,72.2699595 Z" id="形状结合"></path>
                    <g transform="translate(1.241600, 0.000000)">
                        <path d="M77.2105455,75.483772 C77.8134902,74.9156618 78.7628178,74.9439008 79.330928,75.5468455 L81.548928,77.9008455 C82.1170382,78.5037902 82.0887992,79.4531178 81.4858545,80.021228 C80.8829098,80.5893382 79.9335822,80.5610992 79.365472,79.9581545 L77.147472,77.6041545 C76.5793618,77.0012098 76.6076008,76.0518822 77.2105455,75.483772 Z" id="Stroke-13"></path>
                        <path d="M64.1720372,75.483309 C64.7752376,74.9154703 65.7245524,74.9441367 66.292391,75.5473372 L68.508391,77.9013372 C69.0762297,78.5045376 69.0475633,79.4538524 68.4443628,80.021691 C67.8411624,80.5895297 66.8918476,80.5608633 66.324009,79.9576628 L64.108009,77.6036628 C63.5401703,77.0004624 63.5688367,76.0511476 64.1720372,75.483309 Z" id="Stroke-15"></path>
                        <path d="M51.1320372,75.483309 C51.7352376,74.9154703 52.6845524,74.9441367 53.252391,75.5473372 L55.468391,77.9013372 C56.0362297,78.5045376 56.0075633,79.4538524 55.4043628,80.021691 C54.8011624,80.5895297 53.8518476,80.5608633 53.284009,79.9576628 L51.068009,77.6036628 C50.5001703,77.0004624 50.5288367,76.0511476 51.1320372,75.483309 Z" id="Stroke-17"></path>
                        <path d="M38.0934295,75.4828458 C38.6968857,74.915279 39.6461875,74.9443732 40.2137542,75.5478295 L42.4277542,77.9018295 C42.995321,78.5052857 42.9662268,79.4545875 42.3627705,80.0221542 C41.7593143,80.589721 40.8100125,80.5606268 40.2424458,79.9571705 L38.0284458,77.6031705 C37.460879,76.9997143 37.4899732,76.0504125 38.0934295,75.4828458 Z" id="Stroke-19"></path>
                        <path d="M25.0529372,75.483309 C25.6561376,74.9154703 26.6054524,74.9441367 27.173291,75.5473372 L29.389291,77.9013372 C29.9571297,78.5045376 29.9284633,79.4538524 29.3252628,80.021691 C28.7220624,80.5895297 27.7727476,80.5608633 27.204909,79.9576628 L24.988909,77.6036628 C24.4210703,77.0004624 24.4497367,76.0511476 25.0529372,75.483309 Z" id="Stroke-21"></path>
                        <path d="M12.0118372,75.483309 C12.6150376,74.9154703 13.5643524,74.9441367 14.132191,75.5473372 L16.348191,77.9013372 C16.9160297,78.5045376 16.8873633,79.4538524 16.2841628,80.021691 C15.6809624,80.5895297 14.7316476,80.5608633 14.163809,79.9576628 L11.947809,77.6036628 C11.3799703,77.0004624 11.4086367,76.0511476 12.0118372,75.483309 Z" id="Stroke-23"></path>
                        <path d="M-1.02816282,75.483309 C-0.424962382,74.9154703 0.524352366,74.9441367 1.09219101,75.5473372 L3.30819101,77.9013372 C3.87602966,78.5045376 3.84736326,79.4538524 3.24416282,80.021691 C2.64096238,80.5895297 1.69164763,80.5608633 1.12380899,79.9576628 L-1.09219101,77.6036628 C-1.66002966,77.0004624 -1.63136326,76.0511476 -1.02816282,75.483309 Z" id="Stroke-25"></path>
                        <path d="M42.5548149,-0.75164818 L42.0067826,0.218812624 C41.8617142,0.479353402 41.7057906,0.761793108 41.5398139,1.06517396 L41.2925039,1.51913067 C33.6433865,15.6181933 27.8189,30.1154705 27.8189,40.493 C27.8189,47.8988896 29.9002944,53.4325292 33.5915612,57.0708017 C36.5404114,59.9773162 40.3791452,61.4653572 43.8543474,61.4620095 C47.4037999,61.4573402 51.2362137,59.9769769 54.1747108,57.0631163 C57.8321247,53.4363664 59.8859,47.9082054 59.8859,40.493 C59.8859,30.2802146 54.2452404,16.0774129 46.777243,2.19302138 L46.1672166,1.0675537 L45.6990837,0.219000821 L45.1510076,-0.751609449 C44.573256,-1.74944632 43.1325962,-1.74946781 42.5548149,-0.75164818 Z M43.8519,3.092 L44.4782982,4.25500118 C51.5356256,17.4930129 56.8859,31.1087933 56.8859,40.493 C56.8859,47.1460232 55.1190875,51.9017645 52.0623392,54.9328848 C49.7029757,57.2724673 46.6329218,58.4583505 43.8509291,58.4620144 C41.1461039,58.4646157 38.0692478,57.2719079 35.6974888,54.9341995 C32.6086549,51.889711 30.8189,47.1314303 30.8189,40.493 C30.8189,31.1088143 36.1695407,17.4930393 43.22848,4.25295593 L43.8519,3.092 Z" id="Stroke-27"></path>
                        <path d="M75.2365853,16.8384974 L74.8758547,17.5057251 L74.5230446,18.1761883 C74.3395504,18.5287113 74.1458006,18.9067029 73.9434966,19.3080537 C72.9810815,21.2173885 72.0189106,23.2678883 71.119893,25.3823287 C70.1068408,27.7649724 69.2378422,30.0813569 68.5566285,32.2803701 C67.5207204,35.6243653 66.9528,38.5822961 66.9528,41.075 C66.9528,49.337761 71.3750918,53.881381 76.5473599,53.8760068 C81.7790252,53.8671898 86.1398,49.3602632 86.1398,41.075 C86.1398,38.5823591 85.5720989,35.624474 84.5365875,32.2805202 C83.8556304,30.0815206 82.9869579,27.7651469 81.9742853,25.3825129 C81.2039866,23.5701406 80.3873065,21.8047442 79.5638467,20.1349553 L79.1517352,19.3082532 C78.9495066,18.9069033 78.755829,18.5289125 78.5724032,18.1763903 L78.0008758,17.097865 C77.9404482,16.9862525 77.892871,16.8994571 77.8591293,16.8387037 C77.287721,15.809858 75.8081555,15.8097416 75.2365853,16.8384974 Z M76.2219361,21.4614566 L76.5468,20.808 L76.4726148,20.6581843 C77.4071211,22.5128382 78.3418715,24.5056402 79.2133147,26.5559871 C80.1887164,28.8509292 81.0225215,31.0743268 81.6708456,33.1679452 C82.6250016,36.2491799 83.1398,38.9314268 83.1398,41.075 C83.1398,47.7260054 80.0977427,50.8700176 76.5432733,50.8760081 C73.0492142,50.8796383 69.9528,47.6982722 69.9528,41.075 C69.9528,38.9314898 70.4677805,36.2492886 71.4222774,33.1680953 C72.0708376,31.0744904 72.9049478,28.8511037 73.880707,26.5561713 C74.627933,24.7987363 75.4216879,23.0835783 76.2219361,21.4614566 Z" id="Stroke-29"></path>
                        <path d="M9.8468089,16.8386349 L9.48616845,17.5058608 L9.13344605,18.1763229 C8.94999746,18.5288455 8.7562958,18.9068365 8.55404206,19.3081867 C7.59186623,21.2175186 6.62993453,23.2680152 5.73114082,25.3824515 C4.71834167,27.7650887 3.84956047,30.081466 3.16851782,32.2804701 C2.13287422,35.6244377 1.5651,38.5823381 1.5651,41.075 C1.5651,49.338049 5.98677797,53.8813797 11.1596594,53.8760068 C16.3907146,53.8671879 20.7521,49.3599711 20.7521,41.075 C20.7521,38.5823171 20.1842527,35.6244015 19.1484769,32.2804201 C18.4673487,30.0814115 17.5984587,27.7650306 16.5855331,25.3823901 C15.6866275,23.2679517 14.7245761,21.2174536 13.7622807,19.3081202 L13.3696312,18.5371898 C13.2428854,18.2910115 13.1204452,18.05584 13.0028144,17.8323004 L12.6111349,17.0977283 C12.5506922,16.9861156 12.5031031,16.8993199 12.4693529,16.8385662 C11.8978366,15.8097804 10.4182712,15.8098192 9.8468089,16.8386349 Z M10.8327139,21.4613249 L11.1581,20.808 L11.0832943,20.6583173 C12.0180301,22.5129683 12.95301,24.505767 13.8246669,26.5561099 C14.8003069,28.8510456 15.6343154,31.0744359 16.2827969,33.1680453 C17.2371802,36.2492524 17.7521,38.9314688 17.7521,41.075 C17.7521,47.7256646 14.7094838,50.8700165 11.1555725,50.8760081 C7.66095278,50.8796377 4.5651,47.6986093 4.5651,41.075 C4.5651,38.9314478 5.07995913,36.2492162 6.03422877,33.1679952 C6.68263152,31.0743814 7.51653837,28.8509874 8.49205918,26.5560485 C9.23910207,24.79861 10.0326622,23.0834492 10.8327139,21.4613249 Z" id="Stroke-31"></path>
                    </g>
                </g>
            </g>
        </g>
    </g>
</svg>